<?xml version="1.0" standalone="no"?>
<!DOCTYPE svg PUBLIC "-//W3C//DTD SVG 20010904//EN"
 "http://www.w3.org/TR/2001/REC-SVG-20010904/DTD/svg10.dtd">
<svg version="1.0" xmlns="http://www.w3.org/2000/svg"
 width="1024.000000pt" height="1024.000000pt" viewBox="0 0 1024.000000 1024.000000"
 preserveAspectRatio="xMidYMid meet">

<g transform="translate(0.000000,1024.000000) scale(0.100000,-0.100000)"
fill="#6D28D9" stroke="none">
<path d="M1460 10233 c-188 -20 -408 -101 -565 -206 -83 -56 -108 -77 -203
-170 -172 -169 -293 -394 -348 -647 -18 -82 -19 -217 -19 -4090 0 -3873 1
-4008 19 -4090 113 -515 491 -893 1006 -1006 82 -18 210 -19 3770 -19 3560 0
3688 1 3770 19 515 113 893 491 1006 1006 18 82 19 217 19 4090 0 3873 -1
4008 -19 4090 -61 278 -188 501 -400 699 -151 143 -356 247 -601 308 -66 16
-298 17 -3735 19 -2016 0 -3681 -1 -3700 -3z m1555 -1288 c181 -38 349 -168
433 -335 77 -154 72 40 72 -2530 0 -1980 -2 -2315 -15 -2375 -37 -179 -170
-350 -335 -433 -140 -70 -174 -74 -645 -70 l-410 3 -73 27 c-168 61 -300 175
-371 319 -76 154 -71 -38 -71 2529 0 2568 -5 2375 71 2530 81 163 252 296 429
334 96 21 817 22 915 1z m2560 0 c181 -38 349 -168 433 -335 74 -149 72 -102
72 -1250 0 -859 -3 -1036 -15 -1095 -37 -179 -170 -350 -335 -433 -140 -70
-174 -74 -645 -70 l-410 3 -73 27 c-168 61 -300 175 -371 319 -73 149 -71 103
-71 1249 0 1147 -2 1100 71 1250 81 163 252 296 429 334 96 21 817 22 915 1z
m2560 0 c181 -38 349 -168 433 -335 78 -156 72 147 72 -3490 0 -2820 -2 -3275
-15 -3335 -37 -179 -170 -350 -335 -433 -140 -70 -174 -74 -645 -70 l-410 3
-73 27 c-168 61 -300 175 -371 319 -77 156 -71 -145 -71 3489 0 3635 -6 3333
71 3490 81 163 252 296 429 334 96 21 817 22 915 1z"/>
</g>
</svg>
